<svg xmlns="http://www.w3.org/2000/svg" viewBox="0 0 64 56"><defs><style>.cls-1{fill:#74d800;}.cls-2{fill:#37474f;}.cls-3{fill:#5dad00;}</style></defs><title>Animal Frog</title><g id="Layer_2" data-name="Layer 2"><g id="Layer_1-2" data-name="Layer 1"><path class="cls-1" d="M64,38c0,.52,0,1-.07,1.53a13.07,13.07,0,0,1-.36,2.21C61.08,52.16,47.89,56,32,56S2.92,52.16.43,41.74a13.07,13.07,0,0,1-.36-2.21C0,39,0,38.52,0,38,0,24.75,14.33,8,32,8S64,24.75,64,38Z"/><circle class="cls-1" cx="46" cy="12" r="12"/><circle class="cls-2" cx="46" cy="12" r="6"/><circle class="cls-1" cx="18" cy="12" r="12"/><circle class="cls-2" cx="18" cy="12" r="6"/><circle class="cls-3" cx="27" cy="31" r="3"/><circle class="cls-3" cx="37" cy="31" r="3"/><path class="cls-3" d="M32,45A90.08,90.08,0,0,1,.07,39.53a13.07,13.07,0,0,0,.36,2.21A92.11,92.11,0,0,0,32,47a92.11,92.11,0,0,0,31.57-5.26,13.07,13.07,0,0,0,.36-2.21A90.08,90.08,0,0,1,32,45Z"/></g></g></svg>